HIERARCHY
ROOT root
{
	OFFSET	0	13.1	24.9
	CHANNELS 6  Xposition Yposition Zposition Xrotation Yrotation Zrotation
	JOINT spine_1
	{
		OFFSET	0	9.99999	0
		CHANNELS 3  Xrotation Yrotation Zrotation
		JOINT spine_2
		{
			OFFSET	0	112	-10
			CHANNELS 3  Xrotation Yrotation Zrotation
			JOINT spine_3
			{
				OFFSET	0	206.5	19.3
				CHANNELS 3  Xrotation Yrotation Zrotation
				JOINT spine_4
				{
					OFFSET	0	110.4	14.6
					CHANNELS 3  Xrotation Yrotation Zrotation
					JOINT neck_1
					{
						OFFSET	0	71.8	-50.3
						CHANNELS 3  Xrotation Yrotation Zrotation
						JOINT neck_2
						{
							OFFSET	0	86.2	-25.8
							CHANNELS 3  Xrotation Yrotation Zrotation
							JOINT head_ee
							{
								OFFSET	0	179.8	-8.7
								CHANNELS 3  Xrotation Yrotation Zrotation
								End Site
								{
									OFFSET	1	0	0
								}
							}
						}
					}
					JOINT left_clavicle
					{
						OFFSET	-43.2	22.4	-70.8
						CHANNELS 3  Xrotation Yrotation Zrotation
						JOINT left_shoulder
						{
							OFFSET	-93.9	-5.79999	48.7
							CHANNELS 3  Xrotation Yrotation Zrotation
							JOINT left_elbow
							{
								OFFSET	-291.4	-30.8	15.2
								CHANNELS 3  Xrotation Yrotation Zrotation
								JOINT left_lowarm_twist
								{
									OFFSET	-110.7	-3.89999	13.6
									CHANNELS 3  Xrotation Yrotation Zrotation
									JOINT left_hand
									{
										OFFSET	-110.7	-3.89999	13.6
										CHANNELS 3  Xrotation Yrotation Zrotation
										JOINT left_ee
										{
											OFFSET	-80.8	-5.10001	12.1
											CHANNELS 3  Xrotation Yrotation Zrotation
											End Site
											{
												OFFSET	1	0	0
											}
										}
									}
								}
							}
						}
					}
					JOINT right_clavicle
					{
						OFFSET	43.2	22.4	-70.8
						CHANNELS 3  Xrotation Yrotation Zrotation
						JOINT right_shoulder
						{
							OFFSET	93.9	-5.79999	48.7
							CHANNELS 3  Xrotation Yrotation Zrotation
							JOINT right_elbow
							{
								OFFSET	291.4	-30.8	15.2
								CHANNELS 3  Xrotation Yrotation Zrotation
								JOINT right_lowarm_twist
								{
									OFFSET	110.7	-3.89999	13.6
									CHANNELS 3  Xrotation Yrotation Zrotation
									JOINT right_hand
									{
										OFFSET	110.7	-3.89999	13.6
										CHANNELS 3  Xrotation Yrotation Zrotation
										JOINT right_ee
										{
											OFFSET	80.8	-5.10001	12.1
											CHANNELS 3  Xrotation Yrotation Zrotation
											End Site
											{
												OFFSET	1	0	0
											}
										}
									}
								}
							}
						}
					}
				}
			}
		}
	}
	JOINT left_hip
	{
		OFFSET	-82.8	-127.5	0.300001
		CHANNELS 3  Xrotation Yrotation Zrotation
		JOINT left_knee
		{
			OFFSET	-28.2	-396.7	2.2
			CHANNELS 3  Xrotation Yrotation Zrotation
			JOINT left_ankle
			{
				OFFSET	-11.7	-411.3	35.4
				CHANNELS 3  Xrotation Yrotation Zrotation
				JOINT left_toes
				{
					OFFSET	0	-60	-88.6
					CHANNELS 3  Xrotation Yrotation Zrotation
					JOINT left_foot_ee
					{
						OFFSET	-22.5	-16.5	-42.2
						CHANNELS 3  Xrotation Yrotation Zrotation
						End Site
						{
							OFFSET	1	0	0
						}
					}
				}
			}
		}
	}
	JOINT right_hip
	{
		OFFSET	82.8	-127.5	0.300001
		CHANNELS 3  Xrotation Yrotation Zrotation
		JOINT right_knee
		{
			OFFSET	28.2	-396.7	2.2
			CHANNELS 3  Xrotation Yrotation Zrotation
			JOINT right_ankle
			{
				OFFSET	11.7	-411.3	35.4
				CHANNELS 3  Xrotation Yrotation Zrotation
				JOINT right_toes
				{
					OFFSET	0	-60	-88.6
					CHANNELS 3  Xrotation Yrotation Zrotation
					JOINT right_foot_ee
					{
						OFFSET	22.5	-16.5	-42.2
						CHANNELS 3  Xrotation Yrotation Zrotation
						End Site
						{
							OFFSET	1	0	0
						}
					}
				}
			}
		}
	}
}
MOTION
Frames: 14
Frame Time: 0.02
3574.42 741.953 -1474.73 -117.659370459 79.158383416 122.907078572 2.39711 -0.267399 -2.40601 2.40032 -0.113803 -2.41814 2.40465 0.29657 -2.40259 2.39661 -0.0864808 -2.41927 -2.83345 0.199938 -4.79097 -2.75272 4.11039 -4.96905 -0.0 0.0 -0.0 10.5155 -26.696 19.9429 -11.6178 -17.794 64.5181 1.29668 -32.7126 0.380574 23.8109 0.215842 -3.01215 1.76256 4.24143 13.521 -0.0 0.0 -0.0 1.41246 -2.82991 -2.98441 -24.5241 7.81772 -65.2394 1.54046 37.3446 -0.520613 4.79901 -0.144194 0.595855 2.01258 -9.86341 -17.2764 0.0 0.0 0.0 16.5829 -20.0134 -4.80484 -14.5747 0.320803 2.20765 -3.6355 12.9959 0.537894 19.7144 -0.0 -0.0 -0.0 0.0 -0.0 12.6501 -36.6445 -2.81562 -4.56304 -0.160795 -0.681644 -1.09798 29.3743 -0.203966 0.546175 -0.0 -0.0 0.0 0.0 0.0 
3574.42 741.953 -1474.73 -115.456113532 79.3672378253 120.66457346 2.39711 -0.267399 -2.40601 2.40032 -0.113803 -2.41814 2.40465 0.29657 -2.40259 2.39661 -0.0864808 -2.41927 -2.83345 0.199938 -4.79097 -2.75272 4.11039 -4.96905 -0.0 0.0 -0.0 10.5155 -26.696 19.9429 -11.6178 -17.794 64.5181 1.29668 -32.7126 0.380574 23.8109 0.215842 -3.01215 1.76256 4.24143 13.521 -0.0 0.0 -0.0 1.41246 -2.82991 -2.98441 -24.5241 7.81772 -65.2394 1.54046 37.3446 -0.520613 4.79901 -0.144194 0.595855 2.01258 -9.86341 -17.2764 0.0 0.0 0.0 16.5829 -20.0134 -4.80484 -14.5747 0.320803 2.20765 -3.6355 12.9959 0.537894 19.7144 -0.0 -0.0 -0.0 0.0 -0.0 12.6501 -36.6445 -2.81562 -4.56304 -0.160795 -0.681644 -1.09798 29.3743 -0.203966 0.546175 -0.0 -0.0 0.0 0.0 0.0 
3574.42 741.953 -1474.73 -113.028497351 79.5704894866 118.195381916 2.39711 -0.267399 -2.40601 2.40032 -0.113803 -2.41814 2.40465 0.29657 -2.40259 2.39661 -0.0864808 -2.41927 -2.83345 0.199938 -4.79097 -2.75272 4.11039 -4.96905 -0.0 0.0 -0.0 10.5155 -26.696 19.9429 -11.6178 -17.794 64.5181 1.29668 -32.7126 0.380574 23.8109 0.215842 -3.01215 1.76256 4.24143 13.521 -0.0 0.0 -0.0 1.41246 -2.82991 -2.98441 -24.5241 7.81772 -65.2394 1.54046 37.3446 -0.520613 4.79901 -0.144194 0.595855 2.01258 -9.86341 -17.2764 0.0 0.0 0.0 16.5829 -20.0134 -4.80484 -14.5747 0.320803 2.20765 -3.6355 12.9959 0.537894 19.7144 -0.0 -0.0 -0.0 0.0 -0.0 12.6501 -36.6445 -2.81562 -4.56304 -0.160795 -0.681644 -1.09798 29.3743 -0.203966 0.546175 -0.0 -0.0 0.0 0.0 0.0 
3574.42 741.953 -1474.73 -107.813744888 79.9219504977 112.89613722 2.39711 -0.267399 -2.40601 2.40032 -0.113803 -2.41814 2.40465 0.29657 -2.40259 2.39661 -0.0864808 -2.41927 -2.83345 0.199938 -4.79097 -2.75272 4.11039 -4.96905 -0.0 0.0 -0.0 10.5155 -26.696 19.9429 -11.6178 -17.794 64.5181 1.29668 -32.7126 0.380574 23.8109 0.215842 -3.01215 1.76256 4.24143 13.521 -0.0 0.0 -0.0 1.41246 -2.82991 -2.98441 -24.5241 7.81772 -65.2394 1.54046 37.3446 -0.520613 4.79901 -0.144194 0.595855 2.01258 -9.86341 -17.2764 0.0 0.0 0.0 16.5829 -20.0134 -4.80484 -14.5747 0.320803 2.20765 -3.6355 12.9959 0.537894 19.7144 -0.0 -0.0 -0.0 0.0 -0.0 12.6501 -36.6445 -2.81562 -4.56304 -0.160795 -0.681644 -1.09798 29.3743 -0.203966 0.546175 -0.0 -0.0 0.0 0.0 0.0 
3574.42 741.953 -1474.73 -103.749611182 80.1240937249 108.769659675 2.39711 -0.267399 -2.40601 2.40032 -0.113803 -2.41814 2.40465 0.29657 -2.40259 2.39661 -0.0864808 -2.41927 -2.83345 0.199938 -4.79097 -2.75272 4.11039 -4.96905 -0.0 0.0 -0.0 10.5155 -26.696 19.9429 -11.6178 -17.794 64.5181 1.29668 -32.7126 0.380574 23.8109 0.215842 -3.01215 1.76256 4.24143 13.521 -0.0 0.0 -0.0 1.41246 -2.82991 -2.98441 -24.5241 7.81772 -65.2394 1.54046 37.3446 -0.520613 4.79901 -0.144194 0.595855 2.01258 -9.86341 -17.2764 0.0 0.0 0.0 16.5829 -20.0134 -4.80484 -14.5747 0.320803 2.20765 -3.6355 12.9959 0.537894 19.7144 -0.0 -0.0 -0.0 0.0 -0.0 12.6501 -36.6445 -2.81562 -4.56304 -0.160795 -0.681644 -1.09798 29.3743 -0.203966 0.546175 -0.0 -0.0 0.0 0.0 0.0 
3574.42 741.953 -1474.73 -97.2373333164 80.332057767 102.161727047 2.39711 -0.267399 -2.40601 2.40032 -0.113803 -2.41814 2.40465 0.29657 -2.40259 2.39661 -0.0864808 -2.41927 -2.83345 0.199938 -4.79097 -2.75272 4.11039 -4.96905 -0.0 0.0 -0.0 10.5155 -26.696 19.9429 -11.6178 -17.794 64.5181 1.29668 -32.7126 0.380574 23.8109 0.215842 -3.01215 1.76256 4.24143 13.521 -0.0 0.0 -0.0 1.41246 -2.82991 -2.98441 -24.5241 7.81772 -65.2394 1.54046 37.3446 -0.520613 4.79901 -0.144194 0.595855 2.01258 -9.86341 -17.2764 0.0 0.0 0.0 16.5829 -20.0134 -4.80484 -14.5747 0.320803 2.20765 -3.6355 12.9959 0.537894 19.7144 -0.0 -0.0 -0.0 0.0 -0.0 12.6501 -36.6445 -2.81562 -4.56304 -0.160795 -0.681644 -1.09798 29.3743 -0.203966 0.546175 -0.0 -0.0 0.0 0.0 0.0 
3574.42 741.953 -1474.73 -90.1133457552 80.4097955089 94.9362067994 2.39711 -0.267399 -2.40601 2.40032 -0.113803 -2.41814 2.40465 0.29657 -2.40259 2.39661 -0.0864808 -2.41927 -2.83345 0.199938 -4.79097 -2.75272 4.11039 -4.96905 -0.0 0.0 -0.0 10.5155 -26.696 19.9429 -11.6178 -17.794 64.5181 1.29668 -32.7126 0.380574 23.8109 0.215842 -3.01215 1.76256 4.24143 13.521 -0.0 0.0 -0.0 1.41246 -2.82991 -2.98441 -24.5241 7.81772 -65.2394 1.54046 37.3446 -0.520613 4.79901 -0.144194 0.595855 2.01258 -9.86341 -17.2764 0.0 0.0 0.0 16.5829 -20.0134 -4.80484 -14.5747 0.320803 2.20765 -3.6355 12.9959 0.537894 19.7144 -0.0 -0.0 -0.0 0.0 -0.0 12.6501 -36.6445 -2.81562 -4.56304 -0.160795 -0.681644 -1.09798 29.3743 -0.203966 0.546175 -0.0 -0.0 0.0 0.0 0.0 
3574.42 741.953 -1474.73 -79.1315167084 80.2329484875 83.7968113211 2.39711 -0.267399 -2.40601 2.40032 -0.113803 -2.41814 2.40465 0.29657 -2.40259 2.39661 -0.0864808 -2.41927 -2.83345 0.199938 -4.79097 -2.75272 4.11039 -4.96905 -0.0 0.0 -0.0 10.5155 -26.696 19.9429 -11.6178 -17.794 64.5181 1.29668 -32.7126 0.380574 23.8109 0.215842 -3.01215 1.76256 4.24143 13.521 -0.0 0.0 -0.0 1.41246 -2.82991 -2.98441 -24.5241 7.81772 -65.2394 1.54046 37.3446 -0.520613 4.79901 -0.144194 0.595855 2.01258 -9.86341 -17.2764 0.0 0.0 0.0 16.5829 -20.0134 -4.80484 -14.5747 0.320803 2.20765 -3.6355 12.9959 0.537894 19.7144 -0.0 -0.0 -0.0 0.0 -0.0 12.6501 -36.6445 -2.81562 -4.56304 -0.160795 -0.681644 -1.09798 29.3743 -0.203966 0.546175 -0.0 -0.0 0.0 0.0 0.0 
3569.17362958 737.527 -1485.29125454 -72.6831260997 81.1935451047 77.4204691818 2.21972 -0.0627765 -2.44994 2.22305 0.0931996 -2.44898 2.21862 0.513778 -2.39632 2.21063 0.128994 -2.44735 -2.41895 0.492617 -3.65115 -2.36816 3.76721 -3.75685 -0.0 0.0 -0.0 10.2427 -23.733 19.6359 -11.1324 -17.0623 64.6349 1.23829 -31.5241 0.349527 23.8142 0.215783 -3.01258 1.24359 2.62085 9.3851 -0.0 0.0 -0.0 0.746692 -1.84622 -1.63363 -23.9007 8.34175 -65.1611 1.51548 36.8939 -0.505538 4.85571 -0.145598 0.602962 1.9604 -10.9583 -17.3051 0.0 0.0 0.0 15.1235 -20.6559 -5.55696 -13.5443 0.316679 2.04961 -3.20761 9.0743 0.472766 19.3961 -0.0 -0.0 -0.0 0.0 -0.0 11.061 -37.2652 -4.44792 -6.74398 -0.218348 -1.01137 -0.836525 28.7453 -0.15398 0.967296 -0.0 -0.0 0.0 0.0 0.0 
3547.72174898 724.314 -1499.01717959 -82.1403897324 83.5163709989 86.6383298451 1.74753 -0.101687 -2.26701 1.75039 0.042737 -2.26888 1.74867 0.451229 -2.22399 1.74178 0.0944219 -2.26732 -4.67278 -0.0651073 -2.43831 -4.65387 1.72511 -2.50419 -0.0 0.0 -0.0 8.68748 -18.3313 16.6027 -14.6163 -15.1831 65.1452 1.25753 -31.9192 0.359645 23.0544 0.228336 -2.91634 1.25448 3.03322 9.62123 -0.0 0.0 -0.0 1.54663 1.31545 -2.85763 -23.6499 10.0692 -64.6609 1.41579 35.0415 -0.446981 5.49944 -0.161045 0.683742 1.73817 -13.7316 -16.7705 0.0 0.0 0.0 15.2498 -20.9623 -5.84701 -18.0245 0.31392 2.73681 1.08787 10.2216 -0.158863 20.6065 -0.0 -0.0 -0.0 0.0 -0.0 4.76216 -37.1715 -6.07199 -6.61456 -0.215283 -0.99175 1.06053 27.929 0.192071 1.17161 -0.0 -0.0 0.0 0.0 0.0 
3549.7922652 724.314 -1501.1144344 -49.2290772394 81.5062288008 53.4642123952 1.74753 -0.101687 -2.26701 1.75039 0.042737 -2.26888 1.74867 0.451229 -2.22399 1.74178 0.0944219 -2.26732 -4.67278 -0.0651073 -2.43831 -4.65387 1.72511 -2.50419 -0.0 0.0 -0.0 8.68748 -18.3313 16.6027 -14.6163 -15.1831 65.1452 1.25753 -31.9192 0.359645 23.0544 0.228336 -2.91634 1.25448 3.03322 9.62123 -0.0 0.0 -0.0 1.54663 1.31545 -2.85763 -23.6499 10.0692 -64.6609 1.41579 35.0415 -0.446981 5.49944 -0.161045 0.683742 1.73817 -13.7316 -16.7705 0.0 0.0 0.0 15.2498 -20.9623 -5.84701 -18.0245 0.31392 2.73681 1.08787 10.2216 -0.158863 20.6065 -0.0 -0.0 -0.0 0.0 -0.0 4.76216 -37.1715 -6.07199 -6.61456 -0.215283 -0.99175 1.06053 27.929 0.192071 1.17161 -0.0 -0.0 0.0 0.0 0.0 
3547.65326967 715.319 -1508.40761047 -35.6940901318 79.9345507627 39.8099651375 1.67992 -0.20322 -2.26473 1.68278 -0.0587355 -2.27306 1.6852 0.354589 -2.24602 1.67816 -0.0044826 -2.27382 -4.30821 -0.63311 -2.19728 -4.29422 0.514335 -2.35801 -0.0 0.0 -0.0 8.0414 -16.8688 15.2789 -15.7054 -14.4776 65.4851 1.36395 -34.0435 0.417584 22.5419 0.236083 -2.85132 1.27335 3.38666 9.88713 -0.0 0.0 -0.0 1.68248 2.62433 -3.00259 -23.5888 11.2025 -64.6305 1.35637 33.8956 -0.413351 6.29831 -0.17895 0.784219 1.60436 -15.6299 -16.5276 0.0 0.0 0.0 14.7177 -20.774 -5.95991 -18.8646 0.307422 2.86555 4.72358 10.8536 -0.683465 21.0431 -0.0 -0.0 -0.0 0.0 -0.0 3.86023 -37.5385 -6.25515 -6.40003 -0.210106 -0.959235 4.66978 27.5592 0.831755 1.52996 -0.0 -0.0 0.0 0.0 0.0 
3532.94685143 717.548 -1511.97530236 -28.1206092724 78.8615263901 30.8068440217 1.60996 -0.259013 -2.19697 1.61264 -0.118724 -2.20899 1.6174 0.286515 -2.19355 1.61069 -0.063423 -2.21127 -4.03691 -1.41719 -2.55168 -4.01929 -0.637525 -2.85116 -0.0 0.0 -0.0 7.15426 -13.8058 13.534 -17.8458 -13.9193 66.53 1.42137 -35.1476 0.450192 21.2782 0.252694 -2.69077 1.29054 3.58078 10.0787 -0.0 0.0 -0.0 1.87374 4.06692 -3.2498 -23.0273 12.6204 -65.0584 1.31865 33.1518 -0.39252 7.32128 -0.199829 0.913225 1.6428 -16.7329 -17.1349 0.0 0.0 0.0 14.279 -20.5227 -5.88602 -21.4006 0.276364 3.2534 9.24319 11.2501 -1.31944 22.3942 -0.0 -0.0 -0.0 0.0 -0.0 1.0871 -38.191 -7.45866 -6.3394 -0.208621 -0.950049 7.24818 27.1874 1.27272 2.56931 -0.0 -0.0 0.0 0.0 0.0 
3525.9614054 723.253 -1524.9625712 -23.7778105348 78.4772248713 27.8382436617 1.54806 -0.305593 -2.24145 1.55084 -0.162382 -2.25634 1.55749 0.254562 -2.24782 1.55046 -0.10354 -2.25981 -3.84659 -1.97497 -2.78778 -3.82592 -1.46508 -3.18306 -0.0 0.0 -0.0 6.54866 -11.6426 12.3544 -19.3734 -13.5484 67.2934 1.46257 -35.9216 0.474133 20.3945 0.262205 -2.57829 1.30299 3.71634 10.2154 -0.0 0.0 -0.0 2.0149 4.99166 -3.44882 -22.6325 13.5948 -65.4092 1.29221 32.6227 -0.37816 8.03732 -0.213071 1.00373 1.6698 -17.5053 -17.5549 0.0 0.0 0.0 14.0896 -20.367 -5.8419 -23.1808 0.244322 3.52469 12.4113 11.502 -1.75274 23.3515 -0.0 -0.0 -0.0 0.0 -0.0 -0.806319 -38.6163 -8.16944 -6.27151 -0.206946 -0.939766 9.05925 26.932 1.57423 3.29442 -0.0 -0.0 0.0 0.0 0.0 
